# xmcd
#
# Track frame offsets: 
#        150
#        23852
#        39978
#        57245
#        70815
#        92421
#        113635
#        141562
#        170793
#        204450
#        218734
#        239147
#        264300
#
# Disc length: 3815 seconds
#
# Revision: 1
# Processed by: cddbd v1.5.2PL0 Copyright (c) Steve Scherf et al.
# Submitted via: ExactAudioCopy v1.0b3
#
DISCID=bd0ee50d
DTITLE=Immaculata - All Dead Here
DYEAR=2001
DGENRE=Gothic
TTITLE0=Slaughter Town
TTITLE1=Hell Knows
TTITLE2=Jig
TTITLE3=Illuminatus
TTITLE4=Breathless in the Wind
TTITLE5=Foolish People
TTITLE6=All I Have
TTITLE7=Bitch
TTITLE8=Cold Winter
TTITLE9=Pass Me a Gun
TTITLE10=Blood on My Hands
TTITLE11=Industrial Love
TTITLE12=Always
EXTD=
EXTT0=
EXTT1=
EXTT2=
EXTT3=
EXTT4=
EXTT5=
EXTT6=
EXTT7=
EXTT8=
EXTT9=
EXTT10=
EXTT11=
EXTT12=
PLAYORDER=
